<svg width="46" height="39" viewBox="0 0 46 39" fill="none" xmlns="http://www.w3.org/2000/svg">
<path d="M31 23C29.205 23 28 24.515 28 27C28 29.485 28.889 32.048 31 32C33.22 31.95 34.019 29.776 34 27C33.983 24.515 32.794 23 31 23ZM42.263 11.066C42.535 9.723 42.652 4.965 40.678 0C40.678 0 36.15 0.496 29.298 5.198C27.862 4.801 25.431 4.603 23 4.603C20.57 4.603 18.139 4.801 16.701 5.197C9.85 0.495999 5.323 0 5.323 0C3.349 4.965 3.444 9.611 3.737 11.066C1.417 13.584 0 16.609 0 20.741C0 38.707 14.905 38.995 18.667 38.995C19.519 38.995 21.211 38.997 23 39C24.789 38.997 26.483 38.995 27.333 38.995C31.095 38.995 46 38.707 46 20.741C46 16.609 44.583 13.584 42.263 11.066V11.066ZM23.141 37H23C13.571 37 6.158 35.661 6.158 26.497C6.158 24.302 6.932 22.264 8.772 20.573C11.843 17.755 17.036 19.248 22.93 19.248C22.953 19.248 23.049 19.248 23.071 19.248C28.965 19.248 34.16 17.756 37.229 20.573C39.069 22.264 39.843 24.302 39.843 26.497C39.843 35.661 32.57 37 23.141 37V37ZM15 23C13.206 23 12 25.015 12 27.5C12 29.985 13.206 32 15 32C16.796 32 18 29.985 18 27.5C18 25.015 16.796 23 15 23Z" fill="#3A8370"/>
</svg>
